<?xml version="1.0" encoding="UTF-8"?>
<svg id="_レイヤー_2" data-name="レイヤー 2" xmlns="http://www.w3.org/2000/svg" viewBox="0 0 801.95 289.69">
  <defs>
    <style>
      .cls-1 {
        fill: #000;
        stroke-width: 0px;
      }
    </style>
  </defs>
  <g id="_レイヤー_1-2" data-name="レイヤー 1">
    <g>
      <g>
        <path class="cls-1" d="M224.61,133.93c19.37-24.78,24.94-53.84,4.78-76.05-23.05-25.38-63.58-24.93-111.16-2.08-47.58,22.86-72.1,23.48-78.75-5.4C25.99,79.73,13.44,101.44,0,111.9c0,0,4.94,29.28,48.2,24.73,52.12-5.49,101.33-57.05,131.52-65.24,27.84-7.55,53.11,5.49,45.92,38.44-4.8,22-26.43,45.07-45.56,54.43.34-3.52.6-6.92.79-10.16,1.78-30.39,6.78-56.5,13.67-66.46,0,0-41.7,3.34-61.02,62.25-18.86,57.51,6.02,73.93-15.55,114.6-20.35,38.36-58.29,9.64-67.52,1.56-.06,1.76-.16,3.6-.14,5.41,7.14,7.58,33.4,30.69,71.66,9.5,38.59-21.37,53.07-72.77,57.56-111.71,13.47-7.39,32.56-19.35,45.05-35.33Z"/>
        <path class="cls-1" d="M533.76,144.33c20.54-24.4,29.63-35.43,31.5-37.69-1.76-.54-3.61-1.15-5.66-1-10.31,13.1-34.81,40.72-49.28,28.35-12.31-11.54-24.17-18.31-39.38-9.85h0c-5.01,6.56-6.98,19.2-9.1,31.54-2.12-8.09-1.33-17.66,2.88-27.66-12.28-1.62-31.48,4.48-48.47,10.08,12.75-11.75,11.59-28.7,11.59-28.7-12.63,1.41-23.95,1.9-33.3,1,0,0,13.16,10.29,1.23,34.13-19.89,5.24-31.75-9.3-31.75-9.3-11.34,24.38,1.87,50.78,1.87,50.78,7.25-4.45,29.11-2.59,29.11-2.59-13.33-9.36-10.99-29.75-10.99-29.75-.39,1.02,49.21-23.62,61.79-4.65,13.51,20.37-20.57,59.29-47.7,68.75-17.69,6.17-21.74-10.44-22.26-15.38-.95.31-1.84.74-2.71,1.03.28,17.29,12.19,44.57,50.81,26.05,33.58-16.11,52.64-55.47,54.03-80.03.32-.12.64-.24.96-.35,1.66-.56,3.29-.93,4.84-.99,2.71-.11,5.15.69,6.96,2.92,8.27,10.22,19.77,21.03,43.06-6.65Z"/>
        <path class="cls-1" d="M331.81,114.61c40.41-30.56,88.81-22.4,88.81-22.4,1.56-41.24,16.85-48.39,16.85-48.39-42.55-2.98-76.49,26.08-95.26,47.12.3-.51.6-1.03.92-1.53C382.85,25.01,365.92,3.69,365.92,3.69c-18.85,8.01-52.8,10.59-73.3,11.47,0,0,15.85,5.76,18.51,24.48,3.44,24.3-21.7,47.83-18.56,101.87.28,4.81.87,9.57,1.7,14.25l.72,3.55c-12.56,14.64-39.31,41.73-53.76,30.17-17.63-14.12-28.46-13.99-46.27-6.12-2.11,11.05-3.17,15.08-13.25,33.3,0,0,21.45-16.37,37.6-8.69,12.03,5.72,22.09,19.52,48.11-9.93,13.4-15.16,23.26-26.34,28.89-32.79,8.28,32.58,29.09,64.81,38.97,78.56,2.45,1.5,4.44,2.28,8.38,3.16-.27-.65-.49-1.23-.75-1.87-7.32-18.05-26.25-81.05-11.11-130.51Z"/>
        <path class="cls-1" d="M531.63,84.72s66.57-12.22,68.48,9.29c0,0,3.11-4.87,1.59-13.04-2.03-10.93-21.04-31.93-53.54-33.97-32.5-2.03-43.82-14.51-43.82-14.51,0,0,9.29,45.27,27.28,52.23Z"/>
        <ellipse class="cls-1" cx="699.19" cy="169.39" rx="22.37" ry="18.76" transform="translate(85.01 544.02) rotate(-45)"/>
        <path class="cls-1" d="M743.11,5.83s-11.59,13.71-20.39,30.22c-29.99-5.59-64.41,19.14-81.88,45.33-25.43,38.13-23.69,79.42-58.4,93.1-29.13,11.48-53.98-8.11-59.57-14.16-.07-.07-.14-.13-.22-.19-.76.31-1.52.73-2.37,1.08,32.03,37.47,87.07,30.43,117.89,4.26,31.03-26.36,36.37-56.06,53.06-90.43,10.71-22.05,20.33-29.82,28.15-32.04,2.2-.63,4.5-.81,6.74-.34,5.59,1.31,9.53,4.79,11.55,10.78,0,0-.22-.66-2.24-2.56-3.72-3.5-9.9-6.66-18.63-1.9-2.58,6.89-3.89,11.18-3.74,19.99.43,24.39,7.77,44.09-11.8,68.06,1.44-.15,2.88-.2,4.32-.22,1.45-.77,2.7-1.48,3.18-1.75,4.39-2.53,29.44-17.98,30.87-42.38,1.57-26.75-2.6-36.43,62.35-92.7-44.3,10.17-58.85,5.83-58.85,5.83Z"/>
      </g>
      <g>
        <path class="cls-1" d="M478.73,216.57l11.88,23.43-27.69,4.32,15.81-27.74Z"/>
        <path class="cls-1" d="M514.26,236.31l-21.23,3.31,1.88-24.53,8.81-1.37c4.74-.74,11.98-1.87,11.42,5.46-.29,3.78-2.42,6.54-6.79,8.26l5.92,8.88Z"/>
        <path class="cls-1" d="M540.34,216.53l-6.46,1.01-1.22,15.91-9.33,1.45,1.22-15.91-7.09,1.11.66-8.62,22.87-3.57-.66,8.62Z"/>
        <path class="cls-1" d="M541.74,219.87c.56-7.29,6.68-13.54,14.52-14.76,7.76-1.21,13.06,3.26,12.5,10.55-.56,7.36-6.69,13.61-14.41,14.82-7.87,1.23-13.17-3.25-12.61-10.61Z"/>
        <path class="cls-1" d="M570.63,215.37c.56-7.29,6.68-13.54,14.52-14.76,7.76-1.21,13.06,3.26,12.5,10.55-.56,7.36-6.69,13.61-14.41,14.82-7.87,1.23-13.17-3.25-12.61-10.6Z"/>
        <path class="cls-1" d="M624.55,194.88l-1.88,24.53-22.8,3.55,1.93-25.17,12.51,10.38.91-11.85,9.33-1.45Z"/>
        <path class="cls-1" d="M637.55,201.37l-.21,2.77,8.77-1.37-.12,1.61-8.77,1.37-.22,2.91,10.78-1.68-.66,8.62-19.96,3.11,1.88-24.53,19.96-3.11-.66,8.62-10.78,1.68Z"/>
        <path class="cls-1" d="M652.72,207.39l8.06-1.26-.57,7.43-8.06,1.26.57-7.43ZM652.84,190.47l10.08-1.57-2.62,14.92-7.09,1.11-.37-14.45Z"/>
      </g>
    </g>
  </g>
</svg>